<svg width="384" height="44" viewBox="0 0 384 44" fill="none" xmlns="http://www.w3.org/2000/svg">
<g clip-path="url(#clip0_978_2156)">
<rect width="38.4" height="20" fill="#14532D"/>
<rect x="38.4" width="38.4" height="20" fill="#166534"/>
<rect x="76.8" width="38.4" height="20" fill="#15803D"/>
<rect x="115.2" width="38.4" height="20" fill="#16A34A"/>
<rect x="153.6" width="38.4" height="20" fill="#22C55E"/>
<rect x="192" width="38.4" height="20" fill="#4ADE80"/>
<rect x="230.4" width="38.4" height="20" fill="#86EFAC"/>
<rect x="268.8" width="38.4" height="20" fill="#BBF7D0"/>
<rect x="307.2" width="38.4" height="20" fill="#DCFCE7"/>
<rect x="345.6" width="38.4" height="20" fill="#F0FDF4"/>
</g>
<g clip-path="url(#clip1_978_2156)">
<rect y="24" width="38.4" height="20" fill="#111827"/>
<rect x="38.4" y="24" width="38.4" height="20" fill="#1F2937"/>
<rect x="76.8" y="24" width="38.4" height="20" fill="#374151"/>
<rect x="115.2" y="24" width="38.4" height="20" fill="#4B5563"/>
<rect x="153.6" y="24" width="38.4" height="20" fill="#6B7280"/>
<rect x="192" y="24" width="38.4" height="20" fill="#9CA3AF"/>
<rect x="230.4" y="24" width="38.4" height="20" fill="#D1D5DB"/>
<rect x="268.8" y="24" width="38.4" height="20" fill="#E5E7EB"/>
<rect x="307.2" y="24" width="38.4" height="20" fill="#F3F4F6"/>
<rect x="345.6" y="24" width="38.4" height="20" fill="#F9FAFB"/>
</g>
<defs>
<clipPath id="clip0_978_2156">
<rect width="384" height="20" rx="4" fill="white"/>
</clipPath>
<clipPath id="clip1_978_2156">
<rect y="24" width="384" height="20" rx="4" fill="white"/>
</clipPath>
</defs>
</svg>
