<svg width="228" height="184" viewBox="0 0 228 184" fill="none" xmlns="http://www.w3.org/2000/svg">
<g clip-path="url(#clip0_978_2278)">
<path d="M211.802 -18.8017L42.9062 -41.1798C34.2693 -42.3241 26.34 -36.2503 25.1957 -27.6134L2.81756 141.282C1.6732 149.919 7.74709 157.848 16.384 158.993L185.279 181.371C193.916 182.515 201.846 176.441 202.99 167.804L225.368 -1.09119C226.512 -9.72807 220.438 -17.6573 211.802 -18.8017Z" fill="#3178C6"/>
<path fill-rule="evenodd" clip-rule="evenodd" d="M124.192 129.098L121.33 150.695C124.604 152.96 128.579 154.86 133.256 156.396C137.932 157.931 142.927 159.05 148.241 159.754C153.419 160.441 158.404 160.597 163.196 160.225C167.987 159.853 172.29 158.763 176.103 156.957C179.916 155.15 183.09 152.549 185.626 149.153C188.16 145.758 189.785 141.361 190.5 135.962C191.019 132.047 190.888 128.539 190.108 125.436C189.328 122.334 187.986 119.49 186.083 116.903C184.182 114.316 181.808 111.907 178.966 109.676C176.123 107.445 172.872 105.263 169.214 103.131C166.532 101.584 164.139 100.112 162.033 98.7112C159.928 97.3104 158.163 95.9324 156.739 94.5758C155.315 93.2198 154.26 91.8436 153.574 90.4479C152.889 89.0522 152.653 87.5451 152.868 85.9249C153.065 84.4401 153.624 83.1529 154.548 82.0618C155.471 80.9708 156.688 80.0906 158.197 79.4209C159.706 78.7504 161.505 78.314 163.594 78.1095C165.683 77.9056 167.966 77.9679 170.443 78.296C172.244 78.5347 174.129 78.922 176.096 79.4572C178.065 79.9925 180.024 80.6754 181.977 81.507C183.928 82.3376 185.804 83.307 187.605 84.4161C189.405 85.5242 191.042 86.7484 192.513 88.0875L195.187 67.9084C192.067 66.2132 188.599 64.8038 184.785 63.6802C180.971 62.5566 176.541 61.661 171.498 60.9928C166.365 60.3126 161.429 60.2196 156.69 60.7135C151.951 61.2067 147.681 62.3922 143.881 64.2693C140.081 66.1472 136.929 68.7625 134.422 72.1158C131.916 75.4693 130.329 79.6653 129.661 84.7048C128.809 91.1385 129.939 96.8736 133.052 101.91C136.165 106.946 141.295 111.541 148.442 115.693C151.254 117.302 153.865 118.86 156.276 120.371C158.688 121.881 160.745 123.389 162.447 124.896C164.149 126.403 165.442 127.971 166.326 129.599C167.21 131.227 167.526 132.986 167.276 134.876C167.091 136.27 166.582 137.519 165.748 138.622C164.916 139.725 163.753 140.624 162.264 141.319C160.775 142.015 158.972 142.474 156.858 142.697C154.744 142.921 152.313 142.851 149.566 142.487C144.883 141.867 140.354 140.431 135.979 138.18C131.603 135.929 127.674 132.902 124.192 129.098ZM95.3158 70.5848L123.088 74.2646L125.444 56.4821L48.0339 46.2255L45.6778 64.008L73.3146 67.6698L62.824 146.846L84.8252 149.761L95.3158 70.5848Z" fill="white"/>
</g>
<defs>
<clipPath id="clip0_978_2278">
<rect width="201.922" height="201.922" fill="white" transform="translate(27.2677 -43.2518) rotate(7.54754)"/>
</clipPath>
</defs>
</svg>
