<svg width="164" height="35" viewBox="0 0 164 35" fill="none" xmlns="http://www.w3.org/2000/svg">
<path d="M31.7762 27.3614C31.6498 27.1445 31.4163 27.0109 31.1637 27.0109L10.6373 27.0107C10.0928 27.0107 9.75256 26.4265 10.0248 25.9592L20.2878 8.3392C20.4141 8.1223 20.4141 7.85507 20.2878 7.63817L17.9676 3.65471C17.6953 3.18736 17.0148 3.18736 16.7425 3.6547L0.61254 31.3455C0.340302 31.8128 0.680591 32.397 1.22505 32.397L33.484 32.3964C34.0284 32.3964 34.3687 31.8122 34.0965 31.3448L31.7762 27.3614Z" fill="#111827"/>
<path d="M21.2464 20.9393C20.7021 20.9391 20.362 20.3551 20.634 19.8879L23.826 14.4038C23.9522 14.1869 23.9522 13.9198 23.8259 13.703L21.7712 10.1755C21.4989 9.70804 20.8182 9.70813 20.546 10.1756L12.0252 24.8144C11.7533 25.2816 12.0934 25.8656 12.6376 25.8658L29.6882 25.8708C30.2327 25.8709 30.5732 25.2867 30.3009 24.8193L28.2462 21.2917C28.1199 21.0749 27.8865 20.9413 27.6339 20.9412L21.2464 20.9393Z" fill="#42B883"/>
<path d="M46.9983 25.5618L40.1634 9.85869H44.124L50.099 23.7671H47.7678L53.8333 9.85869H57.4771L50.6195 25.5618H46.9983ZM63.2685 25.7412C62.2575 25.7412 61.3522 25.5468 60.5526 25.158C59.768 24.7692 59.1569 24.1784 58.7194 23.3858C58.2818 22.5782 58.0631 21.5537 58.0631 20.3125V13.4928H61.5937V19.7965C61.5937 20.7985 61.8049 21.5388 62.2274 22.0174C62.6649 22.481 63.276 22.7128 64.0606 22.7128C64.6038 22.7128 65.0866 22.6006 65.5091 22.3763C65.9315 22.137 66.2635 21.7781 66.5049 21.2995C66.7462 20.806 66.867 20.1928 66.867 19.46V13.4928H70.3976V25.5618H67.0481V22.2417L67.6591 23.2063C67.2518 24.0438 66.6482 24.6794 65.8486 25.1131C65.0639 25.5319 64.2039 25.7412 63.2685 25.7412ZM79.7114 25.7412C78.3232 25.7412 77.101 25.472 76.0449 24.9337C75.0038 24.3953 74.1966 23.6624 73.6233 22.7352C73.0499 21.793 72.7633 20.7237 72.7633 19.5273C72.7633 18.3159 73.0424 17.2466 73.6007 16.3194C74.174 15.3772 74.951 14.6444 75.9318 14.121C76.9125 13.5826 78.0215 13.3134 79.2587 13.3134C80.4506 13.3134 81.5219 13.5676 82.4725 14.0761C83.4381 14.5696 84.2001 15.2875 84.7584 16.2297C85.3166 17.1569 85.5958 18.2711 85.5958 19.5722C85.5958 19.7068 85.5882 19.8638 85.5731 20.0433C85.558 20.2077 85.5429 20.3648 85.5279 20.5144H75.6376V18.473H83.672L82.3141 19.0786C82.3141 18.4505 82.1858 17.9047 81.9293 17.441C81.6728 16.9774 81.3183 16.6185 80.8656 16.3643C80.413 16.0951 79.8848 15.9605 79.2814 15.9605C78.6778 15.9605 78.1421 16.0951 77.6745 16.3643C77.2218 16.6185 76.8672 16.9849 76.6107 17.4635C76.3542 17.9271 76.226 18.4804 76.226 19.1235V19.6619C76.226 20.3199 76.3693 20.9032 76.656 21.4117C76.9577 21.9052 77.3726 22.2866 77.9008 22.5558C78.444 22.81 79.0777 22.9371 79.8019 22.9371C80.4506 22.9371 81.0164 22.8399 81.4993 22.6455C81.9972 22.451 82.4499 22.1594 82.8573 21.7706L84.7357 23.7896C84.1774 24.4177 83.4758 24.9038 82.6309 25.2477C81.7859 25.5768 80.8127 25.7412 79.7114 25.7412ZM87.9463 25.5618V8.9165H91.4769V25.5618H87.9463ZM100.797 25.7412C99.4088 25.7412 98.1861 25.472 97.1297 24.9337C96.0891 24.3953 95.2819 23.6624 94.7082 22.7352C94.1353 21.793 93.848 20.7237 93.848 19.5273C93.848 18.3159 94.1273 17.2466 94.6861 16.3194C95.259 15.3772 96.0361 14.6444 97.0165 14.121C97.9978 13.5826 99.1064 13.3134 100.344 13.3134C101.536 13.3134 102.607 13.5676 103.558 14.0761C104.523 14.5696 105.285 15.2875 105.843 16.2297C106.402 17.1569 106.681 18.2711 106.681 19.5722C106.681 19.7068 106.673 19.8638 106.658 20.0433C106.643 20.2077 106.628 20.3648 106.613 20.5144H96.723V18.473H104.757L103.399 19.0786C103.399 18.4505 103.271 17.9047 103.014 17.441C102.758 16.9774 102.403 16.6185 101.95 16.3643C101.498 16.0951 100.97 15.9605 100.366 15.9605C99.7633 15.9605 99.2276 16.0951 98.7599 16.3643C98.3072 16.6185 97.9527 16.9849 97.6955 17.4635C97.4391 17.9271 97.3109 18.4804 97.3109 19.1235V19.6619C97.3109 20.3199 97.4541 20.9032 97.7414 21.4117C98.0429 21.9052 98.4575 22.2866 98.9862 22.5558C99.529 22.81 100.163 22.9371 100.887 22.9371C101.536 22.9371 102.102 22.8399 102.584 22.6455C103.082 22.451 103.535 22.1594 103.942 21.7706L105.821 23.7896C105.262 24.4177 104.561 24.9038 103.716 25.2477C102.871 25.5768 101.898 25.7412 100.797 25.7412ZM113.128 25.7412C112.086 25.7412 111.084 25.6216 110.118 25.3823C109.167 25.1281 108.413 24.814 107.854 24.4401L109.031 21.9276C109.59 22.2716 110.246 22.5558 111.001 22.7801C111.77 22.9894 112.524 23.0942 113.264 23.0942C114.078 23.0942 114.652 22.997 114.984 22.8025C115.331 22.6081 115.504 22.3389 115.504 21.9949C115.504 21.7108 115.368 21.5014 115.097 21.3668C114.84 21.2172 114.494 21.1051 114.056 21.0303C113.619 20.9556 113.136 20.8807 112.607 20.806C112.094 20.7312 111.574 20.634 111.046 20.5144C110.518 20.3798 110.034 20.1853 109.597 19.9311C109.16 19.6769 108.805 19.3329 108.533 18.8992C108.277 18.4655 108.149 17.9047 108.149 17.2167C108.149 16.454 108.368 15.781 108.805 15.1977C109.257 14.6145 109.906 14.1584 110.751 13.8293C111.597 13.4854 112.607 13.3134 113.784 13.3134C114.614 13.3134 115.459 13.4031 116.319 13.5826C117.179 13.762 117.896 14.0238 118.469 14.3677L117.292 16.8578C116.704 16.5138 116.108 16.282 115.504 16.1624C114.915 16.0278 114.343 15.9605 113.784 15.9605C113 15.9605 112.426 16.0652 112.064 16.2745C111.702 16.4839 111.521 16.7531 111.521 17.0821C111.521 17.3812 111.65 17.6055 111.906 17.7551C112.177 17.9047 112.532 18.0243 112.97 18.114C113.407 18.2038 113.882 18.286 114.396 18.3608C114.923 18.4206 115.451 18.5178 115.98 18.6524C116.508 18.787 116.983 18.9815 117.405 19.2357C117.843 19.475 118.197 19.8115 118.469 20.2452C118.741 20.6639 118.876 21.2172 118.876 21.9052C118.876 22.6529 118.65 23.3185 118.197 23.9017C117.744 24.47 117.088 24.9187 116.228 25.2477C115.384 25.5768 114.35 25.7412 113.128 25.7412ZM125.151 25.7412C124.11 25.7412 123.107 25.6216 122.141 25.3823C121.191 25.1281 120.436 24.814 119.878 24.4401L121.054 21.9276C121.613 22.2716 122.269 22.5558 123.024 22.7801C123.793 22.9894 124.547 23.0942 125.287 23.0942C126.102 23.0942 126.675 22.997 127.007 22.8025C127.354 22.6081 127.528 22.3389 127.528 21.9949C127.528 21.7108 127.391 21.5014 127.12 21.3668C126.864 21.2172 126.517 21.1051 126.08 21.0303C125.642 20.9556 125.159 20.8807 124.631 20.806C124.118 20.7312 123.597 20.634 123.069 20.5144C122.541 20.3798 122.058 20.1853 121.62 19.9311C121.184 19.6769 120.828 19.3329 120.557 18.8992C120.3 18.4655 120.172 17.9047 120.172 17.2167C120.172 16.454 120.391 15.781 120.828 15.1977C121.281 14.6145 121.93 14.1584 122.775 13.8293C123.62 13.4854 124.631 13.3134 125.807 13.3134C126.637 13.3134 127.483 13.4031 128.343 13.5826C129.202 13.762 129.919 14.0238 130.493 14.3677L129.315 16.8578C128.727 16.5138 128.131 16.282 127.528 16.1624C126.939 16.0278 126.366 15.9605 125.807 15.9605C125.023 15.9605 124.449 16.0652 124.088 16.2745C123.725 16.4839 123.544 16.7531 123.544 17.0821C123.544 17.3812 123.673 17.6055 123.929 17.7551C124.201 17.9047 124.555 18.0243 124.993 18.114C125.431 18.2038 125.905 18.286 126.419 18.3608C126.947 18.4206 127.475 18.5178 128.003 18.6524C128.531 18.787 129.007 18.9815 129.428 19.2357C129.866 19.475 130.221 19.8115 130.493 20.2452C130.764 20.6639 130.9 21.2172 130.9 21.9052C130.9 22.6529 130.673 23.3185 130.221 23.9017C129.768 24.47 129.112 24.9187 128.252 25.2477C127.407 25.5768 126.373 25.7412 125.151 25.7412ZM146.776 25.831C144.527 25.831 142.769 25.2103 141.502 23.969C140.234 22.7278 139.601 20.9556 139.601 18.6524V9.85869H143.268V18.5178C143.268 20.0134 143.577 21.0902 144.195 21.7482C144.814 22.4062 145.681 22.7352 146.798 22.7352C147.914 22.7352 148.783 22.4062 149.401 21.7482C150.019 21.0902 150.329 20.0134 150.329 18.5178V9.85869H153.95V18.6524C153.95 20.9556 153.316 22.7278 152.048 23.969C150.781 25.2103 149.024 25.831 146.776 25.831ZM157.573 25.5618V9.85869H161.239V25.5618H157.573Z" fill="#111827"/>
</svg>
